<svg width="152" height="65" viewBox="0 0 152 65" fill="none" xmlns="http://www.w3.org/2000/svg">
<path d="M45.2775 30.4699H36.2979V24.6581H60.9557V30.4699H51.9366V52.7454H45.2791V30.4699H45.2775Z" fill="#5E0360"/>
<path d="M18.8115 47.7801C7.23066 47.7801 0 39.4537 0 27.3191C0 15.1845 7.23066 6.91394 18.8115 6.91394C30.3924 6.91394 37.6231 15.1302 37.6231 27.3191C37.6231 39.5079 30.3924 47.7785 18.8115 47.7785V47.7801ZM18.8115 42.1196C25.3361 42.1196 30.5008 36.9505 30.5008 27.3191C30.5008 17.6877 25.3361 12.5728 18.8115 12.5728C12.287 12.5728 7.12228 17.7419 7.12228 27.3191C7.12228 36.8963 12.287 42.1196 18.8115 42.1196Z" fill="#FF5B00"/>
<path d="M65.8166 47.9494C62.7506 47.9494 59.9736 45.5005 59.9736 42.1607C59.9736 39.0625 62.4205 36.3128 65.8166 36.3128C69.2127 36.3128 71.6596 38.9425 71.6596 42.1607C71.6596 45.3788 69.0616 47.9494 65.8166 47.9494ZM69.5921 42.1475C69.5921 40.0618 67.9614 38.249 65.8018 38.249C63.6423 38.249 62.0412 40.0322 62.0412 42.1475C62.0412 44.2628 63.6867 46.0166 65.8166 46.0166C67.9466 46.0166 69.5921 44.2037 69.5921 42.1475Z" fill="#FF5B00"/>
<path d="M72.8174 47.7242V36.5413H74.8258V40.0931C75.4909 39.4274 76.4713 39.051 77.4385 39.051C79.8854 39.051 81.6508 41.1663 81.6508 43.4032C81.6508 45.7601 80.1104 47.9971 77.4829 47.9971C76.2742 47.9971 75.4597 47.6338 74.6599 46.7118V47.7242H72.8174ZM79.6424 43.5068C79.6424 42.0407 78.6012 40.8918 77.1807 40.8918C75.7602 40.8918 74.7043 42.0407 74.7043 43.4164C74.7043 44.9285 75.7306 46.1513 77.2267 46.1513C78.7227 46.1513 79.6424 45.0337 79.6424 43.5068Z" fill="#FF5B00"/>
<path d="M85.9977 41.6183C85.8926 41.1795 85.666 40.8935 85.198 40.8935C84.7759 40.8935 84.4278 41.1959 84.4278 41.6183C84.4278 42.0111 84.5936 42.1919 85.8023 42.5404C87.7648 43.114 88.1884 43.9916 88.1884 45.0649C88.1884 46.743 86.9042 47.9971 85.2587 47.9971C83.6132 47.9971 82.2387 47.0898 82.1172 45.0797H84.1699C84.3358 45.8505 84.6987 46.153 85.2719 46.153C85.8007 46.153 86.1784 45.7897 86.1784 45.3065C86.1784 44.7165 85.7399 44.5357 84.5936 44.1577C82.9169 43.6284 82.4194 42.6916 82.4194 41.6495C82.4194 40.1687 83.7183 39.0494 85.2275 39.0494C86.6316 39.0494 87.8846 40.0766 87.9602 41.6183H85.9977Z" fill="#FF5B00"/>
<path d="M90.8604 44.4288C91.0114 45.1685 91.9327 46.1513 93.1709 46.1513C94.0019 46.1513 94.6966 45.8193 95.1038 45.0781H97.2174C96.6738 46.771 94.9527 47.9954 93.1709 47.9954C90.6485 47.9954 88.7468 46.0313 88.7468 43.5528C88.7468 41.0743 90.6042 39.0494 93.1562 39.0494C95.7082 39.0494 97.49 40.9691 97.49 43.4164C97.49 43.7336 97.444 44.0656 97.3684 44.4288H90.8604ZM95.4356 42.8116C95.2385 41.6019 94.4092 40.8918 93.1562 40.8918C92.0542 40.8918 91.1182 41.5263 90.8012 42.8116H95.4372H95.4356Z" fill="#FF5B00"/>
<path d="M98.6067 47.7242V39.337H100.449V40.0783H100.479C101.008 39.2926 101.444 39.051 102.397 39.051H102.443V41.0003C101.234 41.0463 100.615 41.6956 100.615 42.9496V47.7259H98.6067V47.7242Z" fill="#FF5B00"/>
<path d="M106.043 47.7243L102.66 39.337H104.834L106.857 44.8989H106.903L108.806 39.337H111.01L107.613 47.7243H106.043Z" fill="#FF5B00"/>
<path d="M117.773 47.7242V46.6822C117.108 47.4678 115.87 47.9971 114.828 47.9971C112.473 47.9971 110.767 46.0166 110.767 43.4789C110.767 40.9412 112.534 39.051 114.965 39.051C116.142 39.051 117.305 39.7463 117.743 40.3955H117.773V39.337H119.615V47.7242H117.773ZM117.712 43.5068C117.712 42.0407 116.701 40.8918 115.25 40.8918C113.8 40.8918 112.774 42.0703 112.774 43.5676C112.774 44.9729 113.846 46.1513 115.265 46.1513C116.684 46.1513 117.712 44.9416 117.712 43.5068Z" fill="#FF5B00"/>
<path d="M121.481 47.7242V41.1203H120.499V39.337H121.481V36.5413H123.489V39.337H124.698V41.1203H123.489V47.7242H121.481Z" fill="#FF5B00"/>
<path d="M124.762 43.5364C124.762 41.1187 126.71 39.0477 129.232 39.0477C131.755 39.0477 133.671 41.0874 133.671 43.5051C133.671 45.9229 131.799 47.9938 129.232 47.9938C126.665 47.9938 124.762 45.9541 124.762 43.5347V43.5364ZM131.663 43.5528C131.663 42.1771 130.636 40.8935 129.216 40.8935C127.873 40.8935 126.769 42.1327 126.769 43.538C126.769 44.9433 127.795 46.153 129.231 46.153C130.666 46.153 131.661 44.9433 131.661 43.5544L131.663 43.5528Z" fill="#FF5B00"/>
<path d="M134.755 47.7242V39.337H136.598V40.0783H136.627C137.156 39.2926 137.593 39.051 138.545 39.051H138.591V41.0003C137.383 41.0463 136.763 41.6956 136.763 42.9496V47.7259H134.755V47.7242Z" fill="#FF5B00"/>
<path d="M139.181 38.3837V36.5396H141.189V38.3837H139.181ZM139.181 47.7242V39.337H141.189V47.7242H139.181Z" fill="#FF5B00"/>
<path d="M142.207 43.5364C142.207 41.1187 144.155 39.0477 146.677 39.0477C149.2 39.0477 151.116 41.0874 151.116 43.5051C151.116 45.9229 149.244 47.9938 146.677 47.9938C144.111 47.9938 142.207 45.9541 142.207 43.5347V43.5364ZM149.108 43.5528C149.108 42.1771 148.082 40.8935 146.661 40.8935C145.318 40.8935 144.214 42.1327 144.214 43.538C144.214 44.9433 145.241 46.153 146.676 46.153C148.111 46.153 149.106 44.9433 149.106 43.5544L149.108 43.5528Z" fill="#FF5B00"/>
<path d="M63.1447 61.5863V52.3378H61.0755V50.4033H67.2962V52.3378H65.2123V61.5863H63.1431H63.1447Z" fill="#5E0360"/>
<path d="M69.0255 58.2909C69.1766 59.0322 70.0978 60.0134 71.3361 60.0134C72.167 60.0134 72.8617 59.6814 73.269 58.9401H75.3825C74.8389 60.633 73.1179 61.8575 71.3361 61.8575C68.8136 61.8575 66.912 59.8934 66.912 57.4149C66.912 54.9363 68.7693 52.9114 71.3213 52.9114C73.8733 52.9114 75.6551 54.8312 75.6551 57.2785C75.6551 57.5957 75.6091 57.9277 75.5336 58.2909H69.0255ZM73.6007 56.6736C73.4036 55.4639 72.5743 54.7539 71.3213 54.7539C70.2194 54.7539 69.2833 55.3883 68.9664 56.6736H73.6023H73.6007Z" fill="#5E0360"/>
<path d="M84.9549 58.8497C84.2455 60.7694 82.6756 61.8575 80.7575 61.8575C78.281 61.8575 76.3038 59.8178 76.3038 57.3541C76.3038 54.8903 78.2826 52.9114 80.7427 52.9114C82.6296 52.9114 84.3063 54.0455 84.9549 55.98H82.6903C82.2519 55.1944 81.664 54.7555 80.7427 54.7555C79.3238 54.7555 78.3122 55.8896 78.3122 57.3853C78.3122 58.881 79.3993 60.015 80.8346 60.015C81.6656 60.015 82.2699 59.5318 82.692 58.8514H84.9566L84.9549 58.8497Z" fill="#5E0360"/>
<path d="M91.3842 61.5863V57.3705C91.3842 55.6628 90.8259 54.7555 89.6927 54.7555C89.0736 54.7555 87.9569 55.1632 87.9569 57.0073V61.5863H85.9485V53.1991H87.8058V53.9239C88.4709 53.2747 89.1492 52.9114 90.1164 52.9114C91.2036 52.9114 93.3926 53.5919 93.3926 56.6292V61.5863H91.3842Z" fill="#5E0360"/>
<path d="M94.3369 57.4001C94.3369 54.9824 96.2846 52.9114 98.807 52.9114C101.329 52.9114 103.246 54.9511 103.246 57.3688C103.246 59.7866 101.374 61.8575 98.807 61.8575C96.2402 61.8575 94.3369 59.8178 94.3369 57.4001ZM101.237 57.4149C101.237 56.0392 100.211 54.7555 98.7906 54.7555C97.4473 54.7555 96.3437 55.9948 96.3437 57.4001C96.3437 58.8053 97.3701 60.015 98.8054 60.015C100.241 60.015 101.236 58.8053 101.236 57.4149H101.237Z" fill="#5E0360"/>
<path d="M104.289 61.5863V50.4033H106.297V61.5863H104.289Z" fill="#5E0360"/>
<path d="M107.309 57.4001C107.309 54.9824 109.256 52.9114 111.779 52.9114C114.301 52.9114 116.218 54.9511 116.218 57.3689C116.218 59.7866 114.346 61.8575 111.779 61.8575C109.212 61.8575 107.309 59.8178 107.309 57.4001ZM114.209 57.4149C114.209 56.0392 113.183 54.7555 111.762 54.7555C110.419 54.7555 109.316 55.9948 109.316 57.4001C109.316 58.8053 110.342 60.015 111.777 60.015C113.213 60.015 114.208 58.8053 114.208 57.4149H114.209ZM110.738 52.1554L109.938 50.7649L113.29 48.7252L114.15 50.2669L110.738 52.1554Z" fill="#5E0360"/>
<path d="M123.834 60.513C123.169 61.4647 122.218 61.8575 121.085 61.8575C118.926 61.8575 116.797 59.969 116.797 57.308C116.797 54.9347 118.716 52.9098 121.07 52.9098C122.158 52.9098 123.14 53.3174 123.744 54.2247H123.774V53.1974H125.721V60.1942C125.721 63.2315 123.608 65 121.146 65C119.274 65 117.597 63.9268 116.934 62.2191H119.23C119.788 62.8831 120.453 63.1559 121.299 63.1559C122.688 63.1559 123.76 62.1287 123.866 60.541L123.836 60.5114L123.834 60.513ZM123.714 57.308C123.714 55.9932 122.627 54.7539 121.238 54.7539C119.924 54.7539 118.808 55.8715 118.808 57.3228C118.808 58.7741 119.865 60.0134 121.314 60.0134C122.762 60.0134 123.714 58.7445 123.714 57.308Z" fill="#5E0360"/>
<path d="M127.083 52.2458V50.4017H129.091V52.2458H127.083ZM127.083 61.5863V53.1991H129.091V61.5863H127.083Z" fill="#5E0360"/>
<path d="M138.843 58.8497C138.133 60.7694 136.563 61.8575 134.645 61.8575C132.169 61.8575 130.191 59.8178 130.191 57.3541C130.191 54.8903 132.169 52.9114 134.63 52.9114C136.517 52.9114 138.194 54.0455 138.843 55.98H136.578C136.139 55.1944 135.552 54.7555 134.63 54.7555C133.211 54.7555 132.2 55.8896 132.2 57.3853C132.2 58.881 133.287 60.015 134.722 60.015C135.553 60.015 136.158 59.5318 136.58 58.8514H138.844L138.843 58.8497Z" fill="#5E0360"/>
<path d="M139.319 57.4001C139.319 54.9824 141.266 52.9114 143.789 52.9114C146.311 52.9114 148.228 54.9511 148.228 57.3688C148.228 59.7866 146.356 61.8575 143.789 61.8575C141.222 61.8575 139.319 59.8178 139.319 57.4001ZM146.219 57.4149C146.219 56.0392 145.193 54.7555 143.772 54.7555C142.429 54.7555 141.326 55.9948 141.326 57.4001C141.326 58.8053 142.352 60.015 143.787 60.015C145.222 60.015 146.218 58.8053 146.218 57.4149H146.219Z" fill="#5E0360"/>
<path d="M23.9812 2.91344C31.9459 1.88126 39.1372 6.85476 41.2097 14.5944C41.8715 17.0121 42.0291 19.512 41.7335 21.9166H40.1619C39.8548 19.6517 39.4 17.4641 38.6232 15.4326C36.2026 8.87309 30.8227 5.28842 23.9812 4.4732V2.91344Z" fill="#FF5B00"/>
<path d="M30.7422 0.102917C39.5708 -0.980208 45.89 6.65262 44.7979 15.15H43.5531C43.3101 13.3568 42.9505 11.6245 42.3346 10.0154C40.4182 4.82166 36.1566 1.98318 30.7406 1.33725V0.102917H30.7422Z" fill="#FF5B00"/>
</svg>
