<svg width="61" height="53" viewBox="0 0 61 53" fill="none" xmlns="http://www.w3.org/2000/svg">
<path d="M45.2775 30.4699H36.2979V24.6581H60.9557V30.4699H51.9366V52.7454H45.2791V30.4699H45.2775Z" fill="#5E0360"/>
<path d="M18.8115 47.7801C7.23066 47.7801 0 39.4537 0 27.3191C0 15.1845 7.23066 6.91394 18.8115 6.91394C30.3924 6.91394 37.6231 15.1302 37.6231 27.3191C37.6231 39.5079 30.3924 47.7785 18.8115 47.7785V47.7801ZM18.8115 42.1196C25.3361 42.1196 30.5008 36.9505 30.5008 27.3191C30.5008 17.6877 25.3361 12.5728 18.8115 12.5728C12.287 12.5728 7.12228 17.7419 7.12228 27.3191C7.12228 36.8963 12.287 42.1196 18.8115 42.1196Z" fill="#FF5B00"/>
<path d="M23.9812 2.91345C31.9459 1.88128 39.1372 6.85478 41.2097 14.5944C41.8715 17.0122 42.0291 19.5121 41.7335 21.9166H40.1619C39.8548 19.6518 39.3999 17.4641 38.6232 15.4327C36.2025 8.8731 30.8227 5.28844 23.9812 4.47322V2.91345Z" fill="#FF5B00"/>
<path d="M30.7422 0.102917C39.5708 -0.980208 45.89 6.65262 44.7979 15.15H43.5531C43.3101 13.3568 42.9505 11.6245 42.3346 10.0154C40.4182 4.82166 36.1566 1.98318 30.7406 1.33725V0.102917H30.7422Z" fill="#FF5B00"/>
</svg>
